<svg width="25" height="25" viewBox="0 0 25 25" fill="none" xmlns="http://www.w3.org/2000/svg">
<g clip-path="url(#clip0_1_7115)">
<path d="M11.3428 23.1292C11.6538 23.4401 12.0718 23.6135 12.5102 23.6135C12.9435 23.6135 13.3717 23.435 13.6776 23.1292L22.8385 13.9683C24.2302 12.5766 24.9949 10.726 25 8.76335C25 6.79557 24.2353 4.94504 22.8436 3.55332C21.4519 2.1616 19.6064 1.39691 17.6387 1.39691C15.7066 1.39691 13.8866 2.13611 12.5051 3.48195C11.1185 2.13101 9.29343 1.38672 7.35624 1.38672C5.39356 1.38672 3.54812 2.1514 2.1564 3.53802C0.764682 4.92974 0 6.78028 0 8.74806C0 10.7107 0.76978 12.5613 2.1615 13.953L11.3428 23.1292ZM3.04343 4.42506C4.19555 3.27293 5.73002 2.6357 7.36134 2.6357C8.99266 2.6357 10.5322 3.27293 11.6894 4.43015L12.0667 4.8074C12.1839 4.92465 12.342 4.99092 12.5102 4.99092C12.6733 4.99092 12.8365 4.92465 12.9537 4.8074L13.3208 4.44035C14.478 3.28313 16.0124 2.6459 17.6489 2.6459C19.2802 2.6459 20.8146 3.28313 21.9668 4.43525C23.124 5.59247 23.7561 7.12693 23.7561 8.75825C23.7561 10.3896 23.1189 11.924 21.9617 13.0813L12.7957 22.2472C12.6478 22.3951 12.3777 22.3951 12.2247 22.2472L3.04853 13.0711C1.89131 11.9138 1.25408 10.3794 1.25408 8.74806C1.25408 7.11674 1.89131 5.58227 3.04343 4.42506Z" fill="black" stroke="black" stroke-width="0.3"/>
</g>
<defs>
<clipPath id="clip0_1_7115">
<rect width="25" height="25" fill="white"/>
</clipPath>
</defs>
</svg>
